<?xml version="1.0" encoding="iso-8859-1"?>
<!-- Generator: Adobe Illustrator 19.0.0, SVG Export Plug-In . SVG Version: 6.00 Build 0)  -->
<svg version="1.1" id="Capa_1" xmlns="http://www.w3.org/2000/svg" xmlns:xlink="http://www.w3.org/1999/xlink" x="0px" y="0px"
	 viewBox="0 0 512 512" style="enable-background:new 0 0 512 512;" xml:space="preserve">
<g>
	<g>
		<path d="M510.795,117.381c-0.217-21.17-3.062-72.656-24.759-93.482C463.203,1.983,398.476-5.932,328.63,4.654
			c-49.639,7.522-143.986,31.214-218.14,105.369C36.513,184,13.101,277.917,5.73,327.315
			c-10.213,68.438-2.785,133.251,18.063,157.617c18.129,21.187,60.923,25.908,84.817,26.836c3.963,0.154,8.026,0.232,12.198,0.232
			c79.905,0,196.335-28.917,279.54-112.121C483.065,317.162,511.637,199.714,510.795,117.381z M109.774,481.786
			c-35.144-1.365-57.057-9.2-63.183-16.36c-4.653-5.439-10.68-20.378-13.64-45.997c-2.116-18.317-3.407-48.397,2.455-87.685
			c0.464-3.108,0.999-6.413,1.609-9.882l153.139,153.139C162.513,480.393,135.058,482.769,109.774,481.786z M379.132,378.663
			c-35.932,35.932-83.078,64.427-136.341,82.405c-6.092,2.056-12.241,3.955-18.42,5.72L44.717,287.134
			c12.458-46.444,37.34-106.245,86.99-155.895c46.435-46.434,101.816-71.364,146.937-84.738l185.412,185.412
			C448.665,283.423,421.684,336.11,379.132,378.663z M472.609,198.033L312.573,37.998c7.493-1.542,14.397-2.745,20.554-3.679
			c20.433-3.096,39.111-4.381,55.626-4.381c40.837,0,68.432,7.857,76.505,15.607c7.197,6.908,15.127,32.431,15.534,72.142
			C481.041,141.898,478.552,169.373,472.609,198.033z"/>
	</g>
</g>
<g>
	<g>
		<path d="M358.094,197.605l-11.947-11.951l8.39-8.39c5.859-5.859,5.859-15.357,0-21.216c-5.858-5.859-15.357-5.859-21.216,0
			l-8.39,8.39l-11.953-11.953c-5.858-5.859-15.357-5.859-21.216,0c-5.859,5.859-5.859,15.357,0,21.216l11.953,11.953l-16.418,16.418
			l-11.952-11.952c-5.858-5.859-15.357-5.859-21.216,0c-5.859,5.859-5.859,15.357,0,21.216l11.952,11.952l-17.081,17.081
			l-12.306-12.306c-5.858-5.859-15.357-5.859-21.216,0c-5.859,5.859-5.859,15.357,0,21.216l12.306,12.306l-16.418,16.418
			l-12.307-12.307c-5.858-5.859-15.357-5.859-21.216,0c-5.859,5.859-5.859,15.357,0,21.216l12.307,12.307l-15.711,15.711
			l-11.952-11.952c-5.858-5.859-15.357-5.859-21.216,0c-5.859,5.859-5.859,15.357,0,21.216l11.952,11.952l-3.547,3.548
			c-5.859,5.859-5.859,15.357,0,21.216c2.929,2.929,6.769,4.395,10.608,4.395s7.679-1.464,10.608-4.395l3.547-3.547l11.952,11.952
			c2.929,2.929,6.769,4.395,10.608,4.395s7.679-1.464,10.608-4.395c5.859-5.859,5.859-15.357,0-21.216l-11.952-11.952l15.711-15.711
			l11.599,11.599c2.929,2.929,6.769,4.395,10.608,4.395s7.679-1.464,10.608-4.395c5.859-5.859,5.859-15.357,0-21.216l-11.599-11.599
			l16.418-16.418l11.598,11.598c2.929,2.929,6.769,4.395,10.608,4.395s7.679-1.464,10.608-4.395c5.859-5.859,5.859-15.357,0-21.216
			l-11.598-11.598l17.081-17.081l11.952,11.952c2.929,2.929,6.769,4.395,10.608,4.395s7.679-1.464,10.608-4.395
			c5.859-5.859,5.859-15.357,0-21.216l-11.952-11.952l16.418-16.419l11.953,11.952c2.929,2.929,6.769,4.395,10.608,4.395
			c3.839,0,7.679-1.464,10.607-4.395C363.952,212.962,363.952,203.464,358.094,197.605z"/>
	</g>
</g>
<g>
</g>
<g>
</g>
<g>
</g>
<g>
</g>
<g>
</g>
<g>
</g>
<g>
</g>
<g>
</g>
<g>
</g>
<g>
</g>
<g>
</g>
<g>
</g>
<g>
</g>
<g>
</g>
<g>
</g>
</svg>
