<svg height="512" viewBox="0 0 60 60" width="512" xmlns="http://www.w3.org/2000/svg"><g id="Page-1" fill="none" fill-rule="evenodd"><g id="022---Baseball" fill="rgb(0,0,0)" fill-rule="nonzero" transform="translate(-1)"><path id="Shape" d="m43.667 28.677 14.979-14.977c1.5073583-1.5026871 2.3545772-3.5435739 2.3545772-5.672 0-2.12842611-.8472189-4.16931288-2.3545772-5.672-1.5032907-1.50698723-3.5444104-2.35391527-5.673-2.35391527s-4.1697093.84692804-5.673 2.35391527l-5.168 5.168c-1.8555204-4.62659076-6.3854227-7.61770488-11.369-7.507-.0174361-.00495779-.0351289-.0089637-.053-.012-.0401136.00366131-.0798934.01034699-.119.02-4.7472366.14672887-8.9568729 3.09107955-10.723 7.5l-5.168-5.17c-1.5034215-1.50674131-3.5444922-2.3534994-5.673-2.3534994-2.12850782 0-4.16957851.84675809-5.673 2.3534994-1.50791139 1.50259603-2.35549544 3.54374647-2.35549544 5.6725 0 2.1287535.84758405 4.169904 2.35549544 5.6725l14.975 14.973c.9337362.9426436 1.9580098 1.7910689 3.058 2.533l.714.487-3.259 4.793-2.765 2.765-8.516 8.516-2.261 2.262c-1.31836159-.6358207-2.90310618-.2274554-3.75000745.9663216-.84690127 1.1937769-.70870867 2.8244457.32700745 3.8586784l4.269 4.269c1.03393898 1.0373172 2.6657615 1.1764395 3.8603766.3291192s1.6027945-2.4333812.9656234-3.7521192l2.258-2.259 8.514-8.514 2.765-2.765 6.491-4.415 6.489 4.411 2.765 2.765 8.514 8.514 2.261 2.263c-.6358207 1.3183616-.2274554 2.9031062.9663216 3.7500075 1.1937769.8469012 2.8244457.7087086 3.8586784-.3270075l4.269-4.269c1.0373172-1.033939 1.1764395-2.6657615.3291192-3.8603766s-2.4333812-1.6027945-3.7521192-.9656234l-2.259-2.258-8.514-8.514-2.765-2.765-3.262-4.798.712-.485c1.0988872-.7414177 2.1221508-1.589169 3.055-2.531zm5.052-24.912c1.7245555-1.71695162 4.3123425-2.2285591 6.5605072-1.29701729 2.2481646.93154182 3.7157102 3.12350305 3.7204928 5.55701729.0046814 1.59902754-.6326242 3.1330284-1.769 4.258l-14.982 14.984c-.8439604.8501985-1.769028 1.6158409-2.762 2.286l-15.487 10.534-3.087-3.087 3.4-5 5.487-8.068c.4.04.8.062 1.2.062.079 0 .158-.01.237-.011.018 0 .034.012.053.012h.029c.0370428-.005308.0737651-.0126524.11-.022 6.2980777-.2019396 11.3538716-5.2656154 11.546-11.564.0103695-.0392115.0187139-.0789307.025-.119 0-.019-.011-.035-.012-.053.0192498-.8476215-.050465-1.6949241-.208-2.528zm-27.678 39.035-2.841-2.841 1.424-1.424 2.844 2.844zm-2.841 2.842-2.842-2.842 1.425-1.425 2.844 2.844zm-2.837 2.838-2.843-2.843 1.424-1.425 2.844 2.844zm-2.838 2.839-2.844-2.844 1.424-1.424 2.844 2.849zm20.357-31.313c.4901594.2136564 1.0607442-.0101023 1.275-.5.2211867-.4789357.0292678-1.0472263-.437-1.294.2542702-.4337775.5410938-.8476326.858-1.238.3913079.3568328.9940187.3429534 1.368486-.031514.3744674-.3744673.3883468-.9771781.031514-1.368486.3895362-.3160091.8023763-.6021558 1.235-.856.2494299.4635452.8174928.6515536 1.2942156.428339.4767227-.2232147.6960904-.7799198.4997844-1.268339.6089553-.2135201 1.2372524-.3672452 1.876-.459-.6123585 4.3938055-4.0661945 7.8476415-8.46 8.46.0920074-.6377198.2457289-1.2649973.459-1.873zm8.084-8.606c-.956773.1088511-1.8969073.3328045-2.8.667l-.022-.047c-.1476556-.3293336-.4613177-.5535485-.8207141-.5866705s-.7087544.1299889-.9141145.4267886-.2348536.6812295-.0771714 1.0058819l.02.043c-.6325484.3616662-1.2307049.7804092-1.787 1.251l-.033-.033c-.3923789-.3789722-1.0160848-.3735524-1.4018186.0121814s-.3911536 1.0094397-.0121814 1.4018186l.033.033c-.4703393.5547085-.8890757 1.1511819-1.251 1.782l-.043-.02c-.4984974-.2234996-1.084101-.0055771-1.3152161.4894355-.2311152.4950126-.0221954 1.0838881.4692161 1.3225645l.047.022c-.3341955.9030927-.5581489 1.843227-.667 2.8-5.0469838-.2854312-9.0755688-4.3140162-9.361-9.361.956773-.1088511 1.8969073-.3328045 2.8-.667l.022.047c.2386764.4914115.8275519.7003313 1.3225645.4692161.4950126-.2311151.7129351-.8167187.4894355-1.3152161l-.02-.043c.6325484-.3616662 1.2307049-.7804092 1.787-1.251l.033.033c.3923789.3789722 1.0160848.3735524 1.4018186-.01218142.3857338-.3857338.3911536-1.00943969.0121814-1.40181858l-.033-.033c.4721787-.55739928.8922696-1.15690743 1.255-1.791l.043.02c.3246524.15768221.7090822.1281887 1.0058819-.07717141.2967997-.2053601.4599106-.55471812.4267886-.91411452-.033122-.35939639-.2573369-.67305845-.5866705-.82071407l-.047-.022c.3341955-.90309275.5581489-1.84322699.667-2.8 5.0486622.28783302 9.0761767 4.32094306 9.357 9.37zm-17.037-6.471c1.5270349-1.52623507 3.5097627-2.51338639 5.648-2.812-.0917548.63874757-.2454799 1.26704468-.459 1.876-.4881232-.19832226-1.0460593.0204072-1.2693478.49762648-.2232886.47721927-.0336916 1.04571573.4313478 1.29337352-.2542702.43377752-.5410938.84763258-.858 1.238-.3913079-.35683278-.9940187-.34295335-1.368486.03151396-.3744674.37446732-.3883468.9771781-.031514 1.36848604-.3903674.3169062-.8042225.60372982-1.238.858-.2476578-.46503938-.8161542-.65463636-1.2933735-.43134783s-.6959488.7812246-.4976265 1.26934783c-.6089553.2135201-1.2372524.3672452-1.876.459.2986136-2.13823732 1.2857649-4.12096514 2.812-5.648zm-1.419 24.622c-.9933754-.670784-1.9187786-1.4370969-2.763-2.288l-14.981-14.981c-1.13297298-1.1275377-1.76992948-2.66007293-1.76992948-4.2585s.6369565-3.13096228 1.76992948-4.2585c1.12803353-1.13051393 2.65946481-1.76583898 4.2565-1.76583898 1.5970352 0 3.1284665.63532505 4.2565 1.76583898l5.942 5.942c-.1154912.62118-.1823606 1.2504213-.2 1.882-.0086884.0393003-.0153638.0790187-.02.119 0 .02.011.035.012.054-.1219013 5.4277864 3.4286569 10.2563155 8.646 11.758l-4.433 6.519zm-14.243 20.338 2.844 2.844-1.425 1.425-2.844-2.844zm.707 7.819c-.39049985.3903819-1.02350015.3903819-1.414 0l-4.268-4.268c-.38481652-.3946387-.38084292-1.0253258.00891565-1.4150843.38975857-.3897586 1.02044562-.3937322 1.41508435-.0089157v.005l4.258 4.258c.19210097.1881045.30036456.4456393.30036456.7145s-.10826359.5263955-.30036456.7145zm34.826-17.749-2.841 2.841-1.424-1.424 2.844-2.844zm2.842 2.841-2.842 2.842-1.425-1.425 2.844-2.844zm2.838 2.839-2.843 2.841-1.425-1.424 2.844-2.844zm2.839 2.838-2.844 2.844-1.424-1.421 2.849-2.849zm6.389 3.551c.3903819.3904999.3903819 1.0235001 0 1.414l-4.268 4.266c-.3946387.3848165-1.0253258.3808429-1.4150843-.0089157-.3897586-.3897585-.3937322-1.0204456-.0089157-1.4150843h.005l4.258-4.258v-.005c.1854826-.1860321.4372993-.2907159.7-.291.2728924-.0032476.5356173.1034281.729.296zm-6.394 2.132-1.425-1.425 2.844-2.844 1.425 1.425zm-11.227-17.16-3.087 3.088-5.221-3.55 5.468-3.72z"/></g></g></svg>