<svg id="Capa_1" enable-background="new 0 0 512.001 512.001" height="512" viewBox="0 0 512.001 512.001" width="512" xmlns="http://www.w3.org/2000/svg"><path d="m437.02 74.981c-48.352-48.352-112.639-74.981-181.02-74.981s-132.667 26.629-181.019 74.981-74.981 112.639-74.981 181.019 26.629 132.667 74.981 181.02 112.639 74.981 181.019 74.981 132.667-26.629 181.02-74.981 74.981-112.639 74.981-181.02-26.629-132.667-74.981-181.019zm37.768 124.062c-39.84-14.503-85.772-24.989-133.9-30.742-.898-27.231 11.628-50.745 36.003-64.632 13.175-7.69 26.591-11.228 33.53-12.669 31.115 28.859 54.04 67.583 64.367 108.043zm-203.788-35.659v-132.882c40.019 2.605 78.021 15.605 110.859 37.713-6.047 2.302-12.559 5.234-19.093 8.968-33.24 18.994-51.179 49.009-51.879 86.801-.008.459.001.915-.002 1.373-13.219-1.02-26.538-1.685-39.885-1.973zm-69.884 2.053c-.003-.485.007-.967-.002-1.453-.7-37.792-18.639-67.807-51.879-86.801-6.535-3.734-13.047-6.667-19.093-8.968 32.837-22.108 70.84-35.108 110.858-37.713v132.874c-13.484.287-26.78.976-39.884 2.061zm-99.536-74.437c6.939 1.441 20.355 4.978 33.53 12.669 24.158 13.888 36.985 36.957 35.991 64.988-48.023 6.37-93.229 18.322-135.208 35.767 9.758-42.578 33.16-83.247 65.687-113.424zm-70.987 148.51c41.577-19.27 86.84-32.573 135.308-39.818-7.403 24.426-21.729 47.793-36.875 69.901-16.877 24.512-38.22 48.622-50.948 77.804-4.364 10.016-7.899 21.168-10.602 33.358-24.38-36.679-37.476-79.709-37.476-124.755 0-5.53.202-11.029.593-16.49zm62.135 172.746c2.21-20.582 6.514-38.332 12.851-52.875 11.06-25.494 31.633-48.658 48.195-72.833 18.231-26.611 36.692-57.281 44.039-90.708 14.15-1.31 28.548-2.133 43.187-2.459v288.119c-55.876-3.585-109.022-28.076-148.272-69.244zm178.272 69.243v-288.113c14.467.324 28.886 1.109 43.158 2.321 7.328 33.479 25.813 64.195 44.068 90.841 15.674 22.968 37.072 47.225 48.195 72.833 6.337 14.543 10.641 32.293 12.851 52.875-38.874 40.857-92.262 65.704-148.272 69.243zm173.528-100.749c-2.704-12.188-6.24-23.339-10.604-33.354-12.759-29.22-33.093-51.94-50.948-77.804-15.258-22.271-29.688-45.818-37.043-70.44 49.474 6.544 96.043 18.323 134.979 34.454.723 7.395 1.089 14.867 1.089 22.394 0 45.044-13.095 88.073-37.473 124.75z"/></svg>