<svg id="Layer_2" height="512" viewBox="0 0 64 64" width="512" xmlns="http://www.w3.org/2000/svg" data-name="Layer 2"><path d="m20 54h4v5h2v-5h4a1 1 0 0 0 1-1v-28a1 1 0 0 0 -1-1h-4v-5h-2v5h-4a1 1 0 0 0 -1 1v28a1 1 0 0 0 1 1z"/><path d="m48 52h4v5h2v-5h4a1 1 0 0 0 1-1v-28a1 1 0 0 0 -1-1h-4v-5h-2v5h-4a1 1 0 0 0 -1 1v28a1 1 0 0 0 1 1z"/><path d="m6 47h4v5h2v-5h4a1 1 0 0 0 1-1v-28a1 1 0 0 0 -1-1h-4v-5h-2v5h-4a1 1 0 0 0 -1 1v28a1 1 0 0 0 1 1zm1-28h8v26h-8z"/><path d="m34 41h4v5h2v-5h4a1 1 0 0 0 1-1v-28a1 1 0 0 0 -1-1h-4v-5h-2v5h-4a1 1 0 0 0 -1 1v28a1 1 0 0 0 1 1zm1-28h8v26h-8z"/></svg>