<?xml version="1.0" encoding="UTF-8"?>
<svg xmlns="http://www.w3.org/2000/svg" id="icons" viewBox="0 0 60 60" width="512" height="512"><path d="M56,50H43a3,3,0,0,1-2.41-1.213l-6.327-8.742,19.9-27.38.006,0,0-.007,5.168-7.109A3.525,3.525,0,0,0,58.6.7a3.484,3.484,0,0,0-4.929.754L45.51,12.729h0v0L30,34.155,6.335,1.456A3.5,3.5,0,0,0,1.4.7,3.513,3.513,0,0,0,.665,5.548l5.152,7.087c0,.008.006.017.011.025s.015.011.021.018l2.912,4.006c0,.006,0,.012.008.017s.01.007.013.012l2.923,4.021,0,.006,0,.005,5.871,8.076,0,.01.008.008,8.141,11.2-6.327,8.745A2.986,2.986,0,0,1,17,50H4a4,4,0,0,0-4,4v2a4,4,0,0,0,4,4H15.52a8.344,8.344,0,0,0,6.689-3.382L30,45.9l7.793,10.72A8.339,8.339,0,0,0,44.483,60H56a4,4,0,0,0,4-4V54A4,4,0,0,0,56,50ZM55.3,2.62a1.5,1.5,0,0,1,2.426,1.753l-4.608,6.339-2.449-1.7Zm-5.8,8.018,2.446,1.692-1.761,2.422-2.439-1.691Zm-2.927,4.043L49,16.37l-1.762,2.424-2.431-1.685ZM43.634,18.73l2.428,1.682L44.3,22.836l-2.424-1.678ZM40.7,22.779l2.421,1.675-1.766,2.429-2.413-1.675Zm-2.931,4.049,2.41,1.673-7.152,9.84-1.8-2.481ZM2.284,4.374A1.5,1.5,0,1,1,4.713,2.626L9.337,9.015,6.89,10.709Zm5.782,7.953,2.444-1.691,1.754,2.423-2.437,1.69ZM11,16.367l2.434-1.687,1.757,2.428-2.429,1.683Zm2.939,4.042,2.425-1.68,1.758,2.428L15.7,22.833Zm2.938,4.042L19.3,22.778l1.758,2.429-2.41,1.673ZM20.6,55.437A6.337,6.337,0,0,1,15.52,58H4a2,2,0,0,1-2-2V54a2,2,0,0,1,2-2H17a4.993,4.993,0,0,0,4.03-2.044l5.946-8.218L28.765,44.2ZM58,56a2,2,0,0,1-2,2H44.483a6.325,6.325,0,0,1-5.075-2.562L19.822,28.5l2.407-1.67L38.975,49.966A5.017,5.017,0,0,0,43,52H56a2,2,0,0,1,2,2Z"/></svg>
