<svg id="Layer_1" enable-background="new 0 0 512 512" height="512" viewBox="0 0 512 512" width="512" xmlns="http://www.w3.org/2000/svg" xmlns:xlink="http://www.w3.org/1999/xlink"><linearGradient id="SVGID_1_" gradientUnits="userSpaceOnUse" x1="471.872" x2="40.128" y1="18.507" y2="450.25"><stop offset="0" stop-color="#e93528"/><stop offset="1" stop-color="#f8bc16"/></linearGradient><path d="m508.069 129.292-26.085-97.633c-1.871-7-8.212-11.87-15.458-11.87h-421.052c-7.246 0-13.587 4.87-15.458 11.87l-26.085 97.633c-2.719 10.175-3.931 19.409-3.931 29.941v34.872c0 29.155 19.603 53.801 46.315 61.495v175.61c0 33.636 27.365 61 61 61h297.369c33.635 0 61-27.364 61-61v-175.61c26.713-7.694 46.316-32.34 46.316-61.495v-34.872c0-10.532-1.212-19.766-3.931-29.941zm-450.309-77.503h396.48l20.924 78.316h-438.328zm326.24 142.316c0 17.645-14.355 32-32 32s-32-14.355-32-32v-32h64zm-256 0v-32h64v31.99.01c0 17.645-14.355 32-32 32s-32-14.355-32-32zm96 0v-32h64v32c0 17.645-14.355 32-32 32s-32-14.355-32-32zm-192 0v-32h64v31.99.01c0 17.645-14.355 32-32 32s-32-14.355-32-32zm259.369 266.106h-70.737v-110.316c0-9.751 7.933-17.685 17.685-17.685h35.368c9.751 0 17.685 7.934 17.685 17.685v110.316zm113.316 0h-81.316v-110.316c0-27.396-22.289-49.685-49.685-49.685h-35.368c-27.396 0-49.685 22.288-49.685 49.685v110.316h-81.316c-15.991 0-29-13.01-29-29v-174.73c13.264-3.043 24.973-10.21 33.685-20.086 11.736 13.305 28.905 21.711 48 21.711s36.264-8.406 48-21.712c11.736 13.306 28.906 21.712 48 21.712s36.264-8.406 48-21.712c11.736 13.306 28.906 21.712 48 21.712s36.264-8.406 48-21.711c8.712 9.876 20.42 17.043 33.684 20.086v174.73c0 15.99-13.009 29-28.999 29zm43.315-234.106c-17.645 0-32-14.355-32-32v-32h64v32c0 17.645-14.355 32-32 32z" fill="url(#SVGID_1_)"/></svg>