<svg id="Capa_1" enable-background="new 0 0 512 512" height="512" viewBox="0 0 512 512" width="512" xmlns="http://www.w3.org/2000/svg"><g><path clip-rule="evenodd" d="m201.23 215.743 156.084-104.056c11.325 10.144 26.285 16.313 42.686 16.313 35.346 0 64-28.654 64-64s-28.654-64-64-64-64 28.654-64 64c0 7.382 1.25 14.472 3.55 21.071l-156.84 104.56c-14.308-13.415-33.55-21.631-54.71-21.631-44.183 0-80 35.817-80 80s35.817 80 80 80c20.775 0 39.701-7.919 53.923-20.904l82.755 68.962c-5.572 12.162-8.678 25.69-8.678 39.942 0 53.019 42.981 96 96 96s96-42.981 96-96-42.981-96-96-96c-27.199 0-51.756 11.311-69.224 29.486l-81.962-68.302c4.615-10.108 7.186-21.346 7.186-33.184 0-11.477-2.417-22.39-6.77-32.257zm198.77-119.743c-17.673 0-32-14.327-32-32s14.327-32 32-32 32 14.327 32 32-14.327 32-32 32zm-48 384c-35.346 0-64-28.654-64-64s28.654-64 64-64 64 28.654 64 64-28.654 64-64 64zm-224-184c-26.51 0-48-21.49-48-48s21.49-48 48-48 48 21.49 48 48-21.49 48-48 48z" fill-rule="evenodd"/></g></svg>