<svg id="Outline" height="512" viewBox="0 0 512 512" width="512" xmlns="http://www.w3.org/2000/svg"><g id="School_Sports_copy" data-name="School Sports copy"><path d="m461.3794 285.2686a181.7288 181.7288 0 0 0 -25.3384-14.8409 189.0586 189.0586 0 0 0 -29.6367-11.3825c-.0324-.01-.06-.0279-.0928-.0374q-4.2567-1.2322-8.5287-2.2473a168.368 168.368 0 0 0 5.4247-42.4529c0-92.6045-75.3393-167.9443-167.9438-167.9443s-167.9437 75.3398-167.9437 167.9443a167.0235 167.0235 0 0 0 25.85 89.5611 75.3394 75.3394 0 0 0 -15.4814 9.5 74.819 74.819 0 1 0 95.7271 114.9578c3.02 3.2695 78.3407 65.3357 183.2421 21.8821 42.0694-17.4248 73.8775-45.2647 94.5415-82.7461l-.007-.0039a189.0434 189.0434 0 0 0 12.9733-29.1386 181.9723 181.9723 0 0 0 7.4244-28.402 25.0176 25.0176 0 0 0 -10.2106-24.6494zm.3589 22.9345c-.7881 4.5259-1.7938 9.1-3.0025 13.688l-14.9118-36c4.1 2.39 8.0451 4.9136 11.8015 7.5567a14.9767 14.9767 0 0 1 6.1128 14.7553zm-73.7573-53.5073q-5.8486-1.0668-11.72-1.7427c-1.2814-59.0666-32.1668-94.48-53.73-120.4082-10.2363-12.3074-19.3-23.2209-24.5914-34.0793 24.9143 1.258 44.4871 8.977 61.4353 18.2617a157.9174 157.9174 0 0 1 28.6061 137.9685zm-90.7673 6.6252c-1.0211-39.4831-9.4924-99.43-52.02-156.6794a182.3288 182.3288 0 0 1 41.7492-6.3042c5.4459 13.5879 15.9115 26.1875 27.9 40.6021 22.9117 27.5488 49.9778 60.111 51.4431 113.1489a187.1187 187.1187 0 0 0 -69.0723 9.2326zm44.3234-163.7558a141.5918 141.5918 0 0 0 -47.3964-9.41 48.521 48.521 0 0 1 -.3145-20.5295 158.2889 158.2889 0 0 1 47.7109 29.9395zm-57.2128-33.3914a58.4575 58.4575 0 0 0 -.4032 24.0764 195.1148 195.1148 0 0 0 -45.4155 7.7835 231.7317 231.7317 0 0 0 -36.3156-36.1758 158.0974 158.0974 0 0 1 82.1348 4.3159zm-94.5987-1.1084c5.2644 3.6695 21.0721 15.4846 38.4369 36.1546-10.345 3.41-25.6806 8.396-48.7564 23.54-18.9416-17.1868-40.6042-20.3826-55.9716-19.88a158.1169 158.1169 0 0 1 66.2911-39.8146zm-76.3124 50.8557c11.8818-1.8864 36.5689-2.9567 57.5084 14.7034-52.9453 38.4077-77.1359 91.8142-87.011 130.9277a157.9213 157.9213 0 0 1 29.5026-145.6311zm-23.0646 163.3072c4.46-25.6326 22.2-94.6595 87.7991-141.4759 13.4819 15.9788 9.3159 32.8267 2.6858 59.6372-7.2153 29.18-16.436 66.5311-7.0356 120.6387a74.7923 74.7923 0 0 0 -71.0288-15.7607 157.4456 157.4456 0 0 1 -12.4205-23.0393zm-30.55 87.3362a64.33 64.33 0 0 1 19.078-38.9339 102.79 102.79 0 0 1 3.3312 11.1894l-7.2957 4.5c-5.6846 3.5078-.321 11.9441 5.25 8.5117l4.1123-2.5366a138.4865 138.4865 0 0 1 1.4872 15.2266l-7.1849-.8277c-6.5669-.7534-7.72 9.1775-1.1446 9.9336l8.4113.9688a155.4013 155.4013 0 0 1 -1.68 19.0217l-6.6009-3.8c-5.7349-3.3062-10.7166 5.3681-4.9893 8.666l9.6794 5.5722c-1.3284 6.1441-2.7622 11.2073-4.1229 15.524a64.5346 64.5346 0 0 1 -18.3314-53.0158zm56.9781 71.8115a64.4507 64.4507 0 0 1 -30.4155-11.746c1.4811-4.416 3.29-10.1919 4.98-17.3415l4.1543 2.3916c5.6793 3.2734 10.7776-5.333 4.9893-8.666l-7.0225-4.0428a166.6529 166.6529 0 0 0 2.4307-23.2167l7.46.8591c6.5685.7593 7.721-9.1773 1.1446-9.9336l-8.5976-.9901a145.3906 145.3906 0 0 0 -2.3628-22.1082l9.6874-5.9758c5.627-3.4722.3864-11.9829-5.25-8.5117l-6.7906 4.1889a98.3059 98.3059 0 0 0 -4.1747-12.3835 64.7134 64.7134 0 0 1 85.4413 9.8691 98.37 98.37 0 0 0 -6.8589 11.0867l-5.662-5.6245c-4.6945-4.6675-11.7385 2.4358-7.0479 7.0937l8.082 8.0286a145.3228 145.3228 0 0 0 -7.324 20.987l-8.6066-.9912c-6.567-.7651-7.7213 9.1773-1.1445 9.9336l7.4773.8614a166.3041 166.3041 0 0 0 -2.924 23.1582l-7.7618 2.3418c-6.3567 1.9184-3.4231 11.4819 2.8886 9.5742l4.5916-1.3853c.02 7.366.45 13.1765.9086 18.0169a64.472 64.472 0 0 1 -32.2926 4.5261zm41.9085-9.5188c-.3377-4.4824-.5737-9.7083-.4635-16.06l10.6687-3.2188c6.3448-1.915 3.4289-11.4843-2.8886-9.5742l-7.26 2.19a155.5442 155.5442 0 0 1 2.7034-18.89l8.3646.9634c6.5685.7593 7.721-9.1773 1.1445-9.9336l-7.1335-.8215a139.4144 139.4144 0 0 1 4.9018-14.4529l3.3836 3.3613c4.6336 4.606 11.7964-2.3784 7.0478-7.0938l-6.0462-6.0063a104.5022 104.5022 0 0 1 5.7435-10.1157 64.7427 64.7427 0 0 1 -20.1657 89.6521zm21.8088-5.5987a73.9218 73.9218 0 0 0 13.222-21.5932l16.468 39.7571c-14.0559-6.5824-27.11-15.2234-29.6903-18.1639zm42.7934 23.6673-25.2457-60.949a74.3426 74.3426 0 0 0 -1.47-30.88c.4287-.7683.85-1.54 1.2908-2.3028l41.0575 99.124c-5.276-1.4121-10.5035-3.0811-15.6329-4.9922zm129.543-3.9551c-34.2 14.1665-68.4866 18.0913-101.9479 11.6934l-46.4976-112.2541a167.3348 167.3348 0 0 1 23.3915-27.5249c4.8078-4.5481-2.07-11.8124-6.8721-7.2637a177.2916 177.2916 0 0 0 -26.356 31.4814c-.0188.0288-.0283.06-.0465.0894q-1.1736 1.79-2.3081 3.624a75.1761 75.1761 0 0 0 -4.7368-8.6929c-14.2059-59.7553-5.7928-98.4343 3.0841-134.333 6.5742-26.5854 11.8515-47.9912-4.0918-67.665 22.3726-14.4128 37.8928-19.2437 48.4461-22.5244 42.9738 56 51.6116 115.5857 52.3543 157.2309a213.56 213.56 0 0 0 -33.8145 16.2535c-5.7421 3.43-.4853 11.94 5.1289 8.5839 30.4373-18.183 82.7081-38.1706 142.62-21.7082l40.079 96.76c-19.566 34.3903-49.3014 60.0405-88.433 76.2497zm94.4638-87.8213-33.663-81.2715c5.5527 1.9756 11.0229 4.2305 16.3588 6.7451l24.1031 58.19c-1.9954 5.5513-4.2689 11.0132-6.7992 16.3364z"/><circle cx="239.629" cy="296.36" r="5"/><path d="m385.0083 292.2871q-16.3716 2.6869-33.1894 7.2127l-3.2779-7.9139c-2.5308-6.1067-11.7725-2.2893-9.2392 3.8262l2.8286 6.8291q-17.5947 5.235-35.4513 12.386l-2.7289-6.5881c-2.5327-6.1192-11.7676-2.2786-9.2388 3.8261l2.7281 6.5855q-17.6412 7.5447-33.8261 16.3093l-2.8273-6.8254c-2.5373-6.1248-11.7643-2.2708-9.2387 3.8261l3.2752 7.9065q-10.0188 5.7767-19.3431 11.9949c-5.571 3.7156.1177 11.9453 5.5488 8.3184q8.5151-5.6793 17.6571-10.9881l3.7584 9.073c2.5275 6.1043 11.7827 2.3133 9.2383-3.8261l-4.2215-10.1914q16.1069-8.7774 33.8062-16.3575l4.3411 10.4795c2.5274 6.1043 11.7827 2.3133 9.2383-3.8261l-4.34-10.4781q17.8532-7.152 35.4707-12.3388l4.2207 10.19c2.5307 6.1086 11.7805 2.3086 9.2392-3.8262l-3.7584-9.0739q15.6612-4.1427 30.95-6.6624c6.5236-1.0709 4.9173-10.9361-1.6201-9.8673z"/></g></svg>