<svg id="Layer_1" height="512" viewBox="0 0 512 512" width="512" xmlns="http://www.w3.org/2000/svg" data-name="Layer 1"><path d="m473.037 38.963c-29.189-29.189-70.676-42.488-116.823-37.445-45.735 5-90.634 27.46-126.425 63.251s-58.254 80.69-63.252 126.425a160.455 160.455 0 0 0 2.688 53.031c-9.1 29.6-23.082 58.308-42.725 87.717l-33.509 42.012-88.45 88.446a13.891 13.891 0 0 0 0 19.648l25.407 25.407a13.891 13.891 0 0 0 19.648 0l88.45-88.45 42.119-33.594c24.435-18.432 51.515-31.611 87.606-42.641a153.9 153.9 0 0 0 34.117 3.735 174.32 174.32 0 0 0 18.918-1.046c45.735-5 90.634-27.461 126.425-63.252s58.254-80.69 63.252-126.425c5.042-46.141-8.257-87.63-37.446-116.819zm-319.611 311.719c11.526-18.624 21.312-41.679 29.729-70.089a127.012 127.012 0 0 0 48.483 48.372c-28.449 8.423-51.532 18.216-70.175 29.754zm23.141-83.526c-8.538 31.42-18.523 56.458-30.419 76.247l-9.181-9.18c16.059-24.515 28.317-48.635 37.192-73.228.757 2.078 1.554 4.135 2.408 6.161zm-134.042 233.233a3.989 3.989 0 0 1 -5.5 0l-25.414-25.409a3.891 3.891 0 0 1 0-5.5l85.109-85.113 30.913 30.913zm92.555-91.8-31.665-31.669 27.558-34.549 38.656 38.656zm42.539-33.71-8.878-8.879c19.815-11.911 44.89-21.907 76.366-30.453q2.816 1.181 5.7 2.235c-28.629 9.894-52.26 21.889-73.188 37.093zm262.541-99.739c-70.28 70.279-173.06 81.86-229.106 25.806s-44.473-158.826 25.806-229.106c40.313-40.313 91.315-61.31 138.061-61.31 34.748 0 67.146 11.605 91.045 35.5 56.05 56.054 44.474 158.831-25.806 229.11zm-80.929-246.016c-39.473 4.313-78.469 23.946-109.8 55.282s-50.968 70.332-55.281 109.805c-4.11 37.608 6.358 71.051 29.475 94.168 19.829 19.828 47.253 30.351 78.386 30.351a145.231 145.231 0 0 0 15.783-.875c39.473-4.313 78.469-23.945 109.805-55.281s50.969-70.332 55.282-109.8c4.108-37.609-6.36-71.053-29.476-94.17s-56.567-33.593-94.174-29.48zm113.7 122.56q-.762 6.968-2.2 13.908l-2.148 2.147-25.641-25.649 28.5-28.5a123.545 123.545 0 0 1 1.493 38.094zm-268.846 43.616q.691-6.323 1.946-12.619l.8-.8 25.649 25.649-26.721 26.722a123.106 123.106 0 0 1 -1.674-38.952zm191.994-85.928-25.649 25.646-25.65-25.649 25.65-25.649zm-18.579-32.724 32.9-32.9a91.422 91.422 0 0 1 32.563 18.736l-39.813 39.816zm-72.512 58.37-25.65-25.649 25.65-25.649 25.649 25.649zm32.72-18.578 25.649 25.65-25.649 25.649-25.648-25.649zm-39.792 25.65-25.649 25.649-25.648-25.649 25.649-25.65zm-32.716 32.72-25.649 25.649-25.651-25.649 25.649-25.649zm7.071 7.071 25.649 25.649-25.649 25.65-25.649-25.65zm7.071-7.071 25.65-25.649 25.649 25.649-25.649 25.649zm58.37 7.071 25.65 25.65-25.65 25.649-25.652-25.65zm7.071-7.071 25.65-25.649 25.649 25.649-25.652 25.649zm32.717-32.72 25.649-25.65 25.65 25.65-25.65 25.649zm-39.791-39.79-25.649-25.651 25.649-25.649 25.65 25.649zm-32.72-32.721-8.811-8.81a172.984 172.984 0 0 1 32.281-14.66zm-7.072 7.072-25.649 25.649-13.268-13.274a195.564 195.564 0 0 1 32.671-25.542l-3.457 3.457zm-32.72 32.72-25.649 25.649-9.922-9.922-.4.4a195.141 195.141 0 0 1 22.754-29.346zm-32.721 32.719-21.349 21.349a172.132 172.132 0 0 1 13.118-29.581zm7.072 72.512 25.652 25.649-37.688 37.688a91.419 91.419 0 0 1 -18.742-32.557zm32.72 32.72 25.65 25.65-30.518 30.516a91.68 91.68 0 0 1 -32.8-18.5zm7.071-7.071 25.65-25.649 25.649 25.649-25.649 25.649zm58.37 7.071 25.65 25.65-25.65 25.649-25.649-25.649zm32.721 32.721 7.712 7.712a172.607 172.607 0 0 1 -28.006 12.582zm7.071-7.071 25.649-25.65 12.7 12.7a193.707 193.707 0 0 1 -34.892 26.128l4.861-4.861zm-7.071-7.072-25.649-25.649 25.649-25.651 25.649 25.649zm7.071-58.369 25.649-25.649 25.65 25.649-25.65 25.649zm32.721-32.721 25.649-25.649 25.649 25.649-25.649 25.649zm25.649-39.792-25.649-25.649 39.784-39.785a91.673 91.673 0 0 1 18.5 32.8zm-75.554-95.953a134.868 134.868 0 0 1 14.66-.813 116.792 116.792 0 0 1 24.282 2.5l-28.829 28.825-25.649-25.649 2.917-2.917c4.195-.829 8.402-1.486 12.619-1.946zm-43.617 268.85a123.486 123.486 0 0 1 -38.094-1.493l26.38-26.379 25.649 25.649-.026.026q-6.93 1.432-13.909 2.197zm106.274-54.915-12.752-12.753 25.649-25.647 8.1 8.1 7.072-7.072-8.1-8.1 22.415-22.415c-8.406 24.387-22.873 47.702-42.384 67.887z"/></svg>