<svg height="512pt" viewBox="-96 0 512 512" width="512pt" xmlns="http://www.w3.org/2000/svg"><path d="m320 16c0-8.835938-7.164062-16-16-16h-96c-8.835938 0-16 7.164062-16 16v156.921875l126.855469 317.132813c.878906 2.25 1.234375 4.667968 1.042969 7.074218 0-.375.101562-.746094.101562-1.128906zm0 0" fill="#fa3d63"/><path d="m.105469 14.871094c0 .375-.105469.746094-.105469 1.128906v480c0 8.835938 7.164062 16 16 16h96c8.835938 0 16-7.164062 16-16v-156.921875l-126.855469-317.132813c-.878906-2.25-1.2343748-4.667968-1.039062-7.074218zm0 0" fill="#fa3d63"/><path d="m318.855469 490.054688-192-480c-2.429688-6.074219-8.3125-10.054688-14.855469-10.054688h-96c-5.308594 0-10.273438 2.632812-13.25 7.03125-2.976562 4.394531-3.578125 9.984375-1.605469 14.914062l192 480c2.429688 6.074219 8.3125 10.054688 14.855469 10.054688h96c5.3125 0 10.273438-2.632812 13.25-7.03125 2.976562-4.394531 3.578125-9.984375 1.605469-14.914062zm0 0" fill="#c20a19"/></svg>