<svg height="512" viewBox="0 0 64 64" width="512" xmlns="http://www.w3.org/2000/svg"><g fill-rule="evenodd"><path d="m48 64h-32a16.0007 16.0007 0 0 1 -16-16v-32a16.0007 16.0007 0 0 1 16-16h32a16 16 0 0 1 16 16v32a16 16 0 0 1 -16 16" fill="#2d2d2d"/><path d="m30 18h18a9.0006 9.0006 0 0 0 .92-17.954c-.306-.017-.609-.046-.92-.046h-32a16.0007 16.0007 0 0 0 -16 16v32a30.0007 30.0007 0 0 1 30-30" fill="#464646"/><path d="m48 32a16 16 0 1 0 16 16v-32a16 16 0 0 1 -16 16" fill="#141414"/><path d="m27 12a1 1 0 0 1 1 1v39.3344a1 1 0 0 1 -.944.9983c-1.866.1007-3.199.2122-4.835.3976a2.0007 2.0007 0 0 1 -2.221-1.9872v-38.7431a1 1 0 0 1 1-1z" fill="#d20014"/><path d="m44 13a2 2 0 0 0 -2-2h-4a2 2 0 0 0 -2 2v39a1 1 0 0 0 1 1h6a1 1 0 0 0 1-1z" fill="#d20014"/></g><path d="m29.045 12.3245a2.0017 2.0017 0 0 0 -1.883-1.3245h-5.164a1.9977 1.9977 0 0 0 -1.998 1.998v-.0037a.3472.3472 0 0 1 .674-.1172c2.59 7.2178 11.871 33.082 14.043 39.1342a2 2 0 0 0 1.799 1.3221c2.07.0963 4.091.2836 5.51.4352a1.78 1.78 0 0 0 1.973-1.7686h.001v.0055a.3472.3472 0 0 1 -.674.1172c-2.614-7.2841-12.05-33.5804-14.281-39.7982z" fill="#ff0a1e"/></svg>