<svg id="Capa_1" enable-background="new 0 0 512.599 512.599" height="512" viewBox="0 0 512.599 512.599" width="512" xmlns="http://www.w3.org/2000/svg"><g><path d="m457.21 512.599h-401.821c-30.59 0-55.389-24.799-55.389-55.389v-401.821c0-30.59 24.799-55.389 55.389-55.389h401.82c30.591 0 55.389 24.799 55.389 55.389v401.821c.001 30.59-24.798 55.389-55.388 55.389z"/><path d="m212.507 209.713v-20.389c2.019-.123 4.026-.257 6.045-.257 55.89-1.762 92.518 48.083 92.518 48.083s-39.528 54.875-81.945 54.875c-5.666 0-11.198-.881-16.485-2.643v-61.924c21.772 2.643 26.177 12.213 39.149 33.985l29.077-24.415s-21.27-27.817-57.017-27.817c-3.791-.123-7.561.123-11.342.502m0-67.468v30.46l6.045-.379c77.662-2.644 128.388 63.686 128.388 63.686s-58.154 70.736-118.696 70.736c-5.287 0-10.451-.502-15.604-1.383v18.883c4.283.502 8.689.881 12.96.881 56.392 0 97.169-28.821 136.697-62.805 6.547 5.287 33.36 18.002 38.892 23.534-37.509 31.464-124.997 56.771-174.586 56.771-4.785 0-9.313-.257-13.841-.758v26.556h214.238v-226.182zm0 147.149v16.117c-52.109-9.313-66.586-63.564-66.586-63.564s25.051-27.694 66.586-32.222v17.623h-.123c-21.772-2.643-38.892 17.745-38.892 17.745s9.692 34.352 39.015 44.301m-92.518-49.723s30.84-45.562 92.641-50.347v-16.619c-68.472 5.544-127.63 63.442-127.63 63.442s33.483 96.924 127.507 105.735v-17.623c-68.973-8.565-92.518-84.588-92.518-84.588z" fill="#fff"/></g></svg>